<svg width="100" height="100" viewBox="0 0 100 100" fill="none" xmlns="http://www.w3.org/2000/svg">
<g opacity="0.3">
<path fill-rule="evenodd" clip-rule="evenodd" d="M38.6905 46.8254C42.7449 46.8254 46.0317 43.5386 46.0317 39.4841C46.0317 35.4296 42.7449 32.1428 38.6905 32.1428C34.636 32.1428 31.3492 35.4296 31.3492 39.4841C31.3492 43.5386 34.636 46.8254 38.6905 46.8254ZM38.6905 48.4127C43.6216 48.4127 47.619 44.4152 47.619 39.4841C47.619 34.553 43.6216 30.5555 38.6905 30.5555C33.7594 30.5555 29.7619 34.553 29.7619 39.4841C29.7619 44.4152 33.7594 48.4127 38.6905 48.4127Z" fill="#BDBDBD"/>
<path fill-rule="evenodd" clip-rule="evenodd" d="M60.5159 46.8254C64.5703 46.8254 67.8571 43.5386 67.8571 39.4841C67.8571 35.4296 64.5703 32.1428 60.5159 32.1428C56.4614 32.1428 53.1746 35.4296 53.1746 39.4841C53.1746 43.5386 56.4614 46.8254 60.5159 46.8254ZM60.5159 48.4127C65.447 48.4127 69.4444 44.4152 69.4444 39.4841C69.4444 34.553 65.447 30.5555 60.5159 30.5555C55.5847 30.5555 51.5873 34.553 51.5873 39.4841C51.5873 44.4152 55.5847 48.4127 60.5159 48.4127Z" fill="#BDBDBD"/>
<path fill-rule="evenodd" clip-rule="evenodd" d="M60.5159 24.6032C63.4745 24.6032 65.873 22.2047 65.873 19.246C65.873 16.2874 63.4745 13.8889 60.5159 13.8889C57.5572 13.8889 55.1587 16.2874 55.1587 19.246C55.1587 22.2047 57.5572 24.6032 60.5159 24.6032ZM60.5159 26.1905C64.3512 26.1905 67.4603 23.0814 67.4603 19.246C67.4603 15.4107 64.3512 12.3016 60.5159 12.3016C56.6806 12.3016 53.5714 15.4107 53.5714 19.246C53.5714 23.0814 56.6806 26.1905 60.5159 26.1905Z" fill="#BDBDBD"/>
<path fill-rule="evenodd" clip-rule="evenodd" d="M60.7143 6.34921C62.0292 6.34921 63.0952 5.28322 63.0952 3.96825C63.0952 2.65329 62.0292 1.5873 60.7143 1.5873C59.3993 1.5873 58.3333 2.65329 58.3333 3.96825C58.3333 5.28322 59.3993 6.34921 60.7143 6.34921ZM60.7143 7.93651C62.9059 7.93651 64.6825 6.15986 64.6825 3.96825C64.6825 1.77665 62.9059 0 60.7143 0C58.5226 0 56.746 1.77665 56.746 3.96825C56.746 6.15986 58.5226 7.93651 60.7143 7.93651Z" fill="#BDBDBD"/>
<path fill-rule="evenodd" clip-rule="evenodd" d="M60.7143 98.4127C62.0292 98.4127 63.0952 97.3467 63.0952 96.0318C63.0952 94.7168 62.0292 93.6508 60.7143 93.6508C59.3993 93.6508 58.3333 94.7168 58.3333 96.0318C58.3333 97.3467 59.3993 98.4127 60.7143 98.4127ZM60.7143 100C62.9059 100 64.6825 98.2234 64.6825 96.0318C64.6825 93.8402 62.9059 92.0635 60.7143 92.0635C58.5226 92.0635 56.746 93.8402 56.746 96.0318C56.746 98.2234 58.5226 100 60.7143 100Z" fill="#BDBDBD"/>
<path fill-rule="evenodd" clip-rule="evenodd" d="M1.5873 61.1111C1.5873 62.4261 2.65329 63.4921 3.96825 63.4921C5.28322 63.4921 6.34921 62.4261 6.34921 61.1111C6.34921 59.7962 5.28322 58.7302 3.96825 58.7302C2.65329 58.7302 1.5873 59.7962 1.5873 61.1111ZM7.80216e-07 61.1111C6.84418e-07 63.3027 1.77665 65.0794 3.96825 65.0794C6.15986 65.0794 7.93651 63.3027 7.93651 61.1111C7.93651 58.9195 6.15986 57.1429 3.96825 57.1429C1.77665 57.1429 8.76015e-07 58.9195 7.80216e-07 61.1111Z" fill="#BDBDBD"/>
<path fill-rule="evenodd" clip-rule="evenodd" d="M92.8571 61.5079C92.8571 62.8229 93.9231 63.8889 95.2381 63.8889C96.553 63.8889 97.619 62.8229 97.619 61.5079C97.619 60.193 96.553 59.127 95.2381 59.127C93.9231 59.127 92.8571 60.193 92.8571 61.5079ZM91.2698 61.5079C91.2698 63.6995 93.0465 65.4762 95.2381 65.4762C97.4297 65.4762 99.2063 63.6995 99.2063 61.5079C99.2063 59.3163 97.4297 57.5397 95.2381 57.5397C93.0465 57.5397 91.2698 59.3163 91.2698 61.5079Z" fill="#BDBDBD"/>
<path fill-rule="evenodd" clip-rule="evenodd" d="M38.8889 6.34921C40.2038 6.34921 41.2698 5.28322 41.2698 3.96825C41.2698 2.65329 40.2038 1.5873 38.8889 1.5873C37.5739 1.5873 36.5079 2.65329 36.5079 3.96825C36.5079 5.28322 37.5739 6.34921 38.8889 6.34921ZM38.8889 7.93651C41.0805 7.93651 42.8571 6.15986 42.8571 3.96825C42.8571 1.77665 41.0805 0 38.8889 0C36.6973 0 34.9206 1.77665 34.9206 3.96825C34.9206 6.15986 36.6973 7.93651 38.8889 7.93651Z" fill="#BDBDBD"/>
<path fill-rule="evenodd" clip-rule="evenodd" d="M38.8889 98.4127C40.2038 98.4127 41.2698 97.3467 41.2698 96.0318C41.2698 94.7168 40.2038 93.6508 38.8889 93.6508C37.5739 93.6508 36.5079 94.7168 36.5079 96.0318C36.5079 97.3467 37.5739 98.4127 38.8889 98.4127ZM38.8889 100C41.0805 100 42.8571 98.2234 42.8571 96.0318C42.8571 93.8402 41.0805 92.0635 38.8889 92.0635C36.6973 92.0635 34.9206 93.8402 34.9206 96.0318C34.9206 98.2234 36.6973 100 38.8889 100Z" fill="#BDBDBD"/>
<path fill-rule="evenodd" clip-rule="evenodd" d="M1.5873 39.2857C1.5873 40.6007 2.65329 41.6666 3.96825 41.6666C5.28322 41.6666 6.34921 40.6007 6.34921 39.2857C6.34921 37.9707 5.28322 36.9047 3.96825 36.9047C2.65329 36.9047 1.5873 37.9707 1.5873 39.2857ZM7.80216e-07 39.2857C6.84418e-07 41.4773 1.77665 43.254 3.96825 43.254C6.15986 43.254 7.93651 41.4773 7.93651 39.2857C7.93651 37.0941 6.15986 35.3174 3.96825 35.3174C1.77665 35.3174 8.76015e-07 37.0941 7.80216e-07 39.2857Z" fill="#BDBDBD"/>
<path fill-rule="evenodd" clip-rule="evenodd" d="M92.8571 39.2857C92.8571 40.6007 93.9231 41.6666 95.2381 41.6666C96.553 41.6666 97.619 40.6007 97.619 39.2857C97.619 37.9707 96.553 36.9047 95.2381 36.9047C93.9231 36.9047 92.8571 37.9707 92.8571 39.2857ZM91.2698 39.2857C91.2698 41.4773 93.0465 43.254 95.2381 43.254C97.4297 43.254 99.2063 41.4773 99.2063 39.2857C99.2063 37.0941 97.4297 35.3174 95.2381 35.3174C93.0465 35.3174 91.2698 37.0941 91.2698 39.2857Z" fill="#BDBDBD"/>
<path fill-rule="evenodd" clip-rule="evenodd" d="M60.5159 86.5079C63.4745 86.5079 65.873 84.1095 65.873 81.1508C65.873 78.1921 63.4745 75.7937 60.5159 75.7937C57.5572 75.7937 55.1587 78.1921 55.1587 81.1508C55.1587 84.1095 57.5572 86.5079 60.5159 86.5079ZM60.5159 88.0952C64.3512 88.0952 67.4603 84.9861 67.4603 81.1508C67.4603 77.3155 64.3512 74.2064 60.5159 74.2064C56.6806 74.2064 53.5714 77.3155 53.5714 81.1508C53.5714 84.9861 56.6806 88.0952 60.5159 88.0952Z" fill="#BDBDBD"/>
<path fill-rule="evenodd" clip-rule="evenodd" d="M24.2063 39.4841C24.2063 36.5254 21.8079 34.127 18.8492 34.127C15.8905 34.127 13.4921 36.5254 13.4921 39.4841C13.4921 42.4428 15.8905 44.8413 18.8492 44.8413C21.8079 44.8413 24.2063 42.4428 24.2063 39.4841ZM25.7936 39.4841C25.7936 35.6488 22.6845 32.5397 18.8492 32.5397C15.0139 32.5397 11.9048 35.6488 11.9048 39.4841C11.9048 43.3194 15.0139 46.4286 18.8492 46.4286C22.6845 46.4286 25.7936 43.3194 25.7936 39.4841Z" fill="#BDBDBD"/>
<path fill-rule="evenodd" clip-rule="evenodd" d="M85.7143 39.4841C85.7143 36.5254 83.3158 34.127 80.3571 34.127C77.3985 34.127 75 36.5254 75 39.4841C75 42.4428 77.3985 44.8413 80.3571 44.8413C83.3158 44.8413 85.7143 42.4428 85.7143 39.4841ZM87.3016 39.4841C87.3016 35.6488 84.1925 32.5397 80.3571 32.5397C76.5218 32.5397 73.4127 35.6488 73.4127 39.4841C73.4127 43.3194 76.5218 46.4286 80.3571 46.4286C84.1925 46.4286 87.3016 43.3194 87.3016 39.4841Z" fill="#BDBDBD"/>
<path fill-rule="evenodd" clip-rule="evenodd" d="M85.7143 19.246C85.7143 16.2874 83.3158 13.8889 80.3571 13.8889C77.3985 13.8889 75 16.2874 75 19.246C75 22.2047 77.3985 24.6032 80.3571 24.6032C83.3158 24.6032 85.7143 22.2047 85.7143 19.246ZM87.3016 19.246C87.3016 15.4107 84.1925 12.3016 80.3571 12.3016C76.5218 12.3016 73.4127 15.4107 73.4127 19.246C73.4127 23.0814 76.5218 26.1905 80.3571 26.1905C84.1925 26.1905 87.3016 23.0814 87.3016 19.246Z" fill="#BDBDBD"/>
<path fill-rule="evenodd" clip-rule="evenodd" d="M85.7143 81.1508C85.7143 78.1921 83.3158 75.7937 80.3571 75.7937C77.3985 75.7937 75 78.1921 75 81.1508C75 84.1095 77.3985 86.5079 80.3571 86.5079C83.3158 86.5079 85.7143 84.1095 85.7143 81.1508ZM87.3016 81.1508C87.3016 77.3155 84.1925 74.2064 80.3571 74.2064C76.5218 74.2064 73.4127 77.3155 73.4127 81.1508C73.4127 84.9861 76.5218 88.0952 80.3571 88.0952C84.1925 88.0952 87.3016 84.9861 87.3016 81.1508Z" fill="#BDBDBD"/>
<path fill-rule="evenodd" clip-rule="evenodd" d="M24.2063 81.1508C24.2063 78.1921 21.8079 75.7937 18.8492 75.7937C15.8905 75.7937 13.4921 78.1921 13.4921 81.1508C13.4921 84.1095 15.8905 86.5079 18.8492 86.5079C21.8079 86.5079 24.2063 84.1095 24.2063 81.1508ZM25.7936 81.1508C25.7936 77.3155 22.6845 74.2064 18.8492 74.2064C15.0139 74.2064 11.9048 77.3155 11.9048 81.1508C11.9048 84.9861 15.0139 88.0952 18.8492 88.0952C22.6845 88.0952 25.7936 84.9861 25.7936 81.1508Z" fill="#BDBDBD"/>
<path fill-rule="evenodd" clip-rule="evenodd" d="M24.2063 19.246C24.2063 16.2874 21.8079 13.8889 18.8492 13.8889C15.8905 13.8889 13.4921 16.2874 13.4921 19.246C13.4921 22.2047 15.8905 24.6032 18.8492 24.6032C21.8079 24.6032 24.2063 22.2047 24.2063 19.246ZM25.7936 19.246C25.7936 15.4107 22.6845 12.3016 18.8492 12.3016C15.0139 12.3016 11.9048 15.4107 11.9048 19.246C11.9048 23.0814 15.0139 26.1905 18.8492 26.1905C22.6845 26.1905 25.7936 23.0814 25.7936 19.246Z" fill="#BDBDBD"/>
<path fill-rule="evenodd" clip-rule="evenodd" d="M38.6904 24.6032C41.6491 24.6032 44.0476 22.2047 44.0476 19.246C44.0476 16.2874 41.6491 13.8889 38.6904 13.8889C35.7318 13.8889 33.3333 16.2874 33.3333 19.246C33.3333 22.2047 35.7318 24.6032 38.6904 24.6032ZM38.6904 26.1905C42.5258 26.1905 45.6349 23.0814 45.6349 19.246C45.6349 15.4107 42.5258 12.3016 38.6904 12.3016C34.8551 12.3016 31.746 15.4107 31.746 19.246C31.746 23.0814 34.8551 26.1905 38.6904 26.1905Z" fill="#BDBDBD"/>
<path fill-rule="evenodd" clip-rule="evenodd" d="M38.6904 86.5079C41.6491 86.5079 44.0476 84.1095 44.0476 81.1508C44.0476 78.1921 41.6491 75.7937 38.6904 75.7937C35.7318 75.7937 33.3333 78.1921 33.3333 81.1508C33.3333 84.1095 35.7318 86.5079 38.6904 86.5079ZM38.6904 88.0952C42.5258 88.0952 45.6349 84.9861 45.6349 81.1508C45.6349 77.3155 42.5258 74.2064 38.6904 74.2064C34.8551 74.2064 31.746 77.3155 31.746 81.1508C31.746 84.9861 34.8551 88.0952 38.6904 88.0952Z" fill="#BDBDBD"/>
<path fill-rule="evenodd" clip-rule="evenodd" d="M24.2063 61.3095C24.2063 58.3509 21.8079 55.9524 18.8492 55.9524C15.8905 55.9524 13.4921 58.3509 13.4921 61.3095C13.4921 64.2682 15.8905 66.6667 18.8492 66.6667C21.8079 66.6667 24.2063 64.2682 24.2063 61.3095ZM25.7936 61.3095C25.7936 57.4742 22.6845 54.3651 18.8492 54.3651C15.0139 54.3651 11.9048 57.4742 11.9048 61.3095C11.9048 65.1448 15.0139 68.254 18.8492 68.254C22.6845 68.254 25.7936 65.1448 25.7936 61.3095Z" fill="#BDBDBD"/>
<path fill-rule="evenodd" clip-rule="evenodd" d="M85.7143 61.3095C85.7143 58.3509 83.3158 55.9524 80.3571 55.9524C77.3985 55.9524 75 58.3509 75 61.3095C75 64.2682 77.3985 66.6667 80.3571 66.6667C83.3158 66.6667 85.7143 64.2682 85.7143 61.3095ZM87.3016 61.3095C87.3016 57.4742 84.1925 54.3651 80.3571 54.3651C76.5218 54.3651 73.4127 57.4742 73.4127 61.3095C73.4127 65.1448 76.5218 68.254 80.3571 68.254C84.1925 68.254 87.3016 65.1448 87.3016 61.3095Z" fill="#BDBDBD"/>
<path fill-rule="evenodd" clip-rule="evenodd" d="M60.5159 68.6508C64.5703 68.6508 67.8571 65.364 67.8571 61.3095C67.8571 57.2551 64.5703 53.9683 60.5159 53.9683C56.4614 53.9683 53.1746 57.2551 53.1746 61.3095C53.1746 65.364 56.4614 68.6508 60.5159 68.6508ZM60.5159 70.2381C65.447 70.2381 69.4444 66.2406 69.4444 61.3095C69.4444 56.3784 65.447 52.381 60.5159 52.381C55.5847 52.381 51.5873 56.3784 51.5873 61.3095C51.5873 66.2406 55.5847 70.2381 60.5159 70.2381Z" fill="#BDBDBD"/>
<path fill-rule="evenodd" clip-rule="evenodd" d="M38.6905 68.6508C42.7449 68.6508 46.0317 65.364 46.0317 61.3095C46.0317 57.2551 42.7449 53.9683 38.6905 53.9683C34.636 53.9683 31.3492 57.2551 31.3492 61.3095C31.3492 65.364 34.636 68.6508 38.6905 68.6508ZM38.6905 70.2381C43.6216 70.2381 47.619 66.2406 47.619 61.3095C47.619 56.3784 43.6216 52.381 38.6905 52.381C33.7594 52.381 29.7619 56.3784 29.7619 61.3095C29.7619 66.2406 33.7594 70.2381 38.6905 70.2381Z" fill="#BDBDBD"/>
</g>
</svg>
